<svg xmlns="http://www.w3.org/2000/svg" viewBox="0 0 576 512">
  <path fill="currentColor" d="M564,160 L487.125,160 L347.893,5.297 C341.983,-1.271 331.866,-1.804 325.297,4.108 C318.728,10.02 318.196,20.136 324.108,26.704 L444.075,160 L131.925,160 L251.893,26.703 C257.805,20.136 257.272,10.018 250.704,4.107 C244.135,-1.805 234.018,-1.273 228.108,5.296 L88.875,160 L12,160 C5.373,160 0,165.373 0,172 L0,180 C0,186.627 5.373,192 12,192 L28.444,192 L58.25,406.603 C61.546,430.334 81.836,448 105.794,448 L470.206,448 C494.164,448 514.454,430.334 517.75,406.603 L547.556,192 L564,192 C570.627,192 576,186.627 576,180 L576,172 C576,165.373 570.627,160 564,160 Z M486.054,402.201 C484.961,410.068 478.148,416 470.206,416 L105.794,416 C97.852,416 91.039,410.068 89.946,402.201 L60.752,192 L515.249,192 L486.054,402.201 Z M304,248 L304,360 C304,368.837 296.837,376 288,376 C279.164,376 272,368.837 272,360 L272,248 C272,239.163 279.164,232 288,232 C296.837,232 304,239.163 304,248 Z M416,248 L416,360 C416,368.837 408.837,376 400,376 C391.163,376 384,368.837 384,360 L384,248 C384,239.163 391.163,232 400,232 C408.837,232 416,239.163 416,248 Z M192,248 L192,360 C192,368.837 184.836,376 176,376 C167.164,376 160,368.837 160,360 L160,248 C160,239.163 167.164,232 176,232 C184.836,232 192,239.163 192,248 Z"/>
</svg>